<?xml version="1.0" standalone="no"?>
<!DOCTYPE svg PUBLIC "-//W3C//DTD SVG 20010904//EN"
 "http://www.w3.org/TR/2001/REC-SVG-20010904/DTD/svg10.dtd">
<svg version="1.0" xmlns="http://www.w3.org/2000/svg"
 width="540.000000pt" height="357.000000pt" viewBox="0 0 540.000000 357.000000"
 preserveAspectRatio="xMidYMid meet">
<metadata>
Created by potrace 1.16, written by Peter Selinger 2001-2019
</metadata>
<g transform="translate(0.000000,357.000000) scale(0.100000,-0.100000)"
fill="#000000" stroke="none">
<path d="M0 2410 c0 -1067 1 -1159 16 -1153 12 4 15 2 12 -8 -3 -8 -11 -13
-17 -11 -8 1 -11 -164 -11 -618 l0 -620 2700 0 2700 0 0 515 c0 374 -3 515
-11 515 -8 0 -9 4 0 13 8 10 11 362 11 1270 l0 1257 -2700 0 -2700 0 0 -1160z
m2010 624 c0 -19 5 -24 25 -24 24 0 25 -2 25 -69 l0 -70 -47 -3 c-41 -3 -48
-6 -51 -25 -3 -19 1 -23 22 -23 18 0 25 -6 28 -22 2 -15 11 -24 26 -26 16 -3
22 -10 22 -28 0 -24 -1 -25 -72 -22 -67 3 -73 5 -76 26 -3 16 -10 22 -28 22
-19 0 -24 5 -24 25 0 20 -5 25 -25 25 -23 0 -25 -3 -25 -50 l0 -50 -43 0 c-31
0 -47 6 -61 21 -12 14 -14 24 -7 28 6 4 11 61 13 146 4 165 -12 151 173 147
l125 -3 0 -25z m-1202 -1 c2 -14 11 -23 25 -25 20 -3 22 -10 25 -70 l3 -68
-51 0 c-46 0 -50 -2 -50 -24 0 -18 6 -25 23 -28 14 -2 23 -11 25 -25 2 -14 11
-23 25 -25 14 -2 22 -10 22 -23 0 -18 -7 -20 -75 -20 -70 0 -75 2 -78 22 -2
14 -11 23 -25 25 -14 2 -22 10 -22 23 0 15 -7 20 -25 20 -23 0 -25 -4 -26 -45
l-1 -45 -49 0 -49 0 -3 155 c-1 85 0 160 3 167 3 11 37 13 152 11 144 -3 148
-4 151 -25z m452 2 l0 -25 -125 0 -125 0 0 -50 0 -50 100 0 c93 0 100 -1 100
-20 0 -19 -7 -20 -100 -20 l-100 0 0 -50 0 -50 125 0 125 0 0 -25 0 -25 -175
0 -175 0 0 170 0 170 175 0 175 0 0 -25z m398 -2 c3 -21 0 -23 -47 -23 l-51 0
0 -145 0 -145 -50 0 -50 0 0 145 0 145 -50 0 c-47 0 -50 2 -50 25 l0 26 148
-3 c144 -3 147 -3 150 -25z m760 0 c3 -17 10 -23 28 -23 l24 0 0 -120 0 -120
-24 0 c-18 0 -25 -6 -28 -22 -3 -22 -7 -23 -125 -26 l-123 -3 0 26 c0 20 -5
25 -25 25 l-25 0 0 120 0 120 25 0 c20 0 25 5 25 25 l0 26 123 -3 c118 -3 122
-4 125 -25z m450 0 c3 -23 1 -23 -97 -23 -96 0 -100 -1 -103 -22 -2 -15 -11
-24 -25 -26 -21 -3 -23 -8 -23 -72 0 -64 2 -69 23 -72 14 -2 23 -11 25 -25 3
-20 9 -23 53 -23 l50 0 -3 48 c-3 40 -6 47 -25 50 -15 2 -23 10 -23 23 0 17 8
19 75 19 l76 0 -3 -92 -3 -93 -125 0 c-124 0 -125 0 -123 23 2 17 -2 22 -21
22 -18 0 -25 6 -28 23 -2 14 -11 23 -25 25 -21 3 -23 8 -23 72 0 64 2 69 23
72 14 2 23 11 25 26 3 16 10 22 28 22 19 0 24 5 24 25 l0 26 123 -3 c118 -3
122 -4 125 -25z m302 2 c0 -20 5 -25 24 -25 18 0 25 -6 28 -22 2 -15 11 -24
26 -26 21 -3 22 -7 22 -123 l0 -120 -47 3 -48 3 -3 48 -3 48 -72 -3 -72 -3 -3
-48 -3 -48 -47 3 -47 3 -3 118 -3 117 26 0 c20 0 25 5 25 25 0 20 5 25 25 25
18 0 25 5 25 18 0 29 8 32 82 32 66 0 68 -1 68 -25z m250 0 c0 -20 5 -25 25
-25 20 0 25 -5 25 -26 0 -21 4 -25 23 -22 14 2 23 11 25 26 2 16 10 22 27 22
17 0 25 6 27 23 3 19 10 22 51 25 l47 3 0 -140 c0 -103 3 -141 12 -141 9 0 9
-3 0 -12 -7 -7 -12 -20 -12 -29 0 -21 -16 -26 -60 -19 l-35 5 -3 73 c-3 69 -4
72 -27 72 -20 0 -25 -5 -25 -25 0 -20 -5 -25 -25 -25 -20 0 -25 5 -25 26 0 21
-4 25 -22 22 -21 -3 -23 -9 -26 -75 l-3 -73 -49 0 -50 0 0 170 0 170 50 0 c47
0 50 -2 50 -25z m658 -2 c3 -21 0 -23 -47 -23 l-51 0 0 -120 0 -120 51 0 c47
0 50 -2 47 -22 -3 -22 -6 -23 -148 -26 -165 -3 -176 -1 -160 28 9 16 21 20 60
20 l50 0 0 120 0 120 -49 0 c-51 0 -67 10 -57 36 5 12 30 14 153 12 145 -3
148 -3 151 -25z m152 2 c0 -20 5 -25 25 -25 20 0 25 -5 25 -25 0 -20 5 -25 25
-25 20 0 25 -5 25 -25 0 -20 5 -24 23 -22 20 2 22 8 27 72 l5 70 48 3 47 3 0
-171 0 -171 -47 3 c-41 3 -48 6 -51 26 -3 16 -10 22 -28 22 -19 0 -24 5 -24
25 0 20 -5 25 -25 25 -20 0 -25 5 -25 26 0 21 -4 25 -22 22 -21 -3 -23 -9 -26
-75 l-3 -73 -49 0 -50 0 0 170 0 170 50 0 c47 0 50 -2 50 -25z m650 0 l0 -25
-100 0 -100 0 0 -25 c0 -20 -5 -25 -25 -25 -24 0 -25 -2 -25 -70 0 -68 1 -70
25 -70 20 0 25 -5 25 -25 0 -23 3 -25 50 -25 l50 0 0 50 c0 47 -2 50 -25 50
-18 0 -25 5 -25 20 0 18 7 20 75 20 l75 0 0 -95 0 -95 -125 0 -125 0 0 25 c0
20 -5 25 -25 25 -20 0 -25 5 -25 25 0 20 -5 25 -25 25 -24 0 -25 2 -25 70 0
68 1 70 25 70 16 0 25 6 25 15 0 8 -4 15 -10 15 -5 0 -10 5 -10 10 0 6 16 10
35 10 31 0 35 3 35 25 l0 25 125 0 125 0 0 -25z m-2077 -438 c14 -5 17 -19 17
-72 0 -63 1 -65 25 -65 18 0 25 5 25 19 0 13 8 21 23 23 14 2 23 11 25 26 3
16 10 22 28 22 19 0 24 5 24 25 0 23 3 25 51 25 47 0 50 -2 47 -22 -2 -15 -11
-24 -25 -26 -14 -2 -23 -11 -25 -25 -2 -14 -11 -23 -25 -25 -15 -2 -23 -10
-23 -23 0 -14 -7 -19 -25 -19 -20 0 -25 -5 -25 -25 0 -20 5 -25 25 -25 20 0
25 -5 25 -25 0 -20 5 -25 25 -25 20 0 25 -5 25 -25 0 -20 5 -25 25 -25 18 0
25 -5 25 -20 0 -18 -7 -20 -75 -20 -68 0 -75 2 -75 20 0 15 -7 20 -25 20 -20
0 -25 5 -25 25 0 20 -5 25 -25 25 -23 0 -25 -4 -25 -45 l0 -45 -52 0 -53 0 2
162 2 163 25 3 c14 2 26 9 26 15 0 8 3 9 8 1 4 -6 15 -13 25 -17z m-1191 -19
c2 -15 11 -24 25 -26 14 -2 23 -11 25 -25 2 -14 11 -23 26 -25 18 -3 22 1 22
22 0 20 6 25 28 28 19 2 28 9 30 26 3 19 9 22 47 22 l44 0 3 -165 3 -165 -50
0 -50 0 0 67 c0 66 -1 68 -25 68 -18 0 -26 -6 -28 -22 -3 -17 -10 -23 -28 -23
-19 0 -24 5 -24 26 0 21 -4 25 -22 22 -21 -3 -23 -10 -28 -73 -3 -47 -9 -70
-17 -69 -7 1 -29 2 -48 3 l-35 1 0 165 0 165 49 0 c44 0 50 -3 53 -22z m550 0
c2 -15 11 -24 25 -26 14 -2 23 -11 25 -25 2 -14 11 -23 25 -25 19 -3 22 -10
25 -65 2 -34 2 -86 0 -114 l-3 -53 -50 0 -49 0 0 45 0 45 -75 0 -75 0 0 -45 0
-45 -50 0 -50 0 0 115 0 115 25 0 c15 0 25 5 24 13 -4 28 2 37 26 37 20 0 25
5 25 25 0 24 2 25 74 25 70 0 75 -1 78 -22z m458 -3 c0 -20 5 -25 25 -25 24 0
25 -2 25 -70 l0 -70 -50 0 c-47 0 -50 -2 -50 -25 0 -20 5 -25 25 -25 20 0 25
-5 25 -25 0 -20 5 -25 25 -25 18 0 25 -5 25 -20 0 -18 -7 -20 -75 -20 -68 0
-75 2 -75 20 0 15 -7 20 -25 20 -20 0 -25 5 -25 25 0 20 -5 25 -25 25 -23 0
-25 -4 -25 -45 l0 -45 -50 0 -50 0 0 165 0 165 150 0 150 0 0 -25z m850 0 l0
-25 -125 0 -125 0 0 -45 0 -45 100 0 100 0 0 -25 0 -25 -101 0 -100 0 3 -47 3
-48 123 -3 c118 -3 123 -3 120 -23 -3 -20 -8 -21 -173 -20 -93 1 -170 3 -171
4 -4 4 -6 130 -5 230 l1 97 175 0 175 0 0 -25z m410 0 c0 -23 -3 -25 -50 -25
l-50 0 0 -140 0 -140 -50 0 -50 0 0 140 0 140 -50 0 c-47 0 -50 2 -50 25 l0
25 150 0 150 0 0 -25z"/>
<path d="M1810 2940 l0 -70 50 0 c43 0 50 3 50 19 0 14 8 21 25 23 14 2 25 6
25 11 0 4 0 25 0 47 l0 40 -75 0 -75 0 0 -70z"/>
<path d="M607 3003 c-4 -3 -7 -35 -7 -70 l0 -63 50 0 c43 0 50 3 50 19 0 14 8
21 28 23 25 3 27 7 30 51 l3 47 -74 0 c-40 0 -77 -3 -80 -7z"/>
<path d="M2220 2890 l0 -120 75 2 75 2 0 118 0 118 -75 0 -75 0 0 -120z"/>
<path d="M3070 2985 c0 -20 -5 -25 -25 -25 -23 0 -25 -4 -25 -45 l0 -45 75 0
75 0 0 45 c0 41 -2 45 -25 45 -20 0 -25 5 -25 25 0 20 -5 25 -25 25 -20 0 -25
-5 -25 -25z"/>
<path d="M2060 2525 c0 -20 -5 -25 -23 -25 -22 0 -24 -4 -23 -45 l1 -45 73 0
72 0 0 44 c0 39 -3 45 -22 48 -15 2 -24 11 -26 26 -5 34 -52 31 -52 -3z"/>
<path d="M2420 2480 l0 -70 50 0 c47 0 50 2 50 25 0 20 5 25 25 25 23 0 25 4
25 45 l0 45 -75 0 -75 0 0 -70z"/>
</g>
</svg>
